<svg width="470" height="470" viewBox="0 0 470 470" fill="none" xmlns="http://www.w3.org/2000/svg">
<circle cx="235" cy="235" r="235" fill="#19A7CE"/>
<circle cx="235" cy="235" r="235" stroke="black"/>
<path d="M177 130C196.882 130 213 146.118 213 166C213 182.412 202.017 196.257 187 200.591V340.624L264.835 414H265V468L260.5 468.5L257 469L255.5 469.125H255L248.5 469.5L246 469.715V422.354L168.186 349H168V200.865C152.473 196.869 141 182.775 141 166C141 146.118 157.118 130 177 130ZM231.889 418.48L224 426.303V469.656L205 468V420.038L204.964 420.002L219.299 405.786L231.889 418.48ZM98 239C117.882 239 134 255.118 134 275C134 291.412 123.017 305.257 108 309.591V342.624L185.835 416H186V416.155L186.427 416.558L186 417.01V464.82L176 462.5L167 460V424.356L89.1855 351H89V309.865C73.473 305.869 62 291.775 62 275C62 255.118 78.1177 239 98 239ZM371 191C390.882 191 407 207.118 407 227C407 243.775 395.527 257.869 380 261.865V349H379.369L303.908 423.935L303.5 459.5C303.5 459.5 298.5 461.5 294.5 462.5C290.778 463.43 285 464.5 285 464.5V416H285.063L285 415.937L361 340.465V261.591C345.983 257.257 335 243.412 335 227C335 207.118 351.118 191 371 191ZM293 42C312.882 42 329 58.1177 329 78C329 94.7745 317.527 108.869 302 112.865V342L250.396 393.244L236 378.747L283 332.074V112.591C267.983 108.257 257 94.4122 257 78C257 58.1177 273.118 42 293 42ZM244.801 89H245V89.1787L245.081 89.252L245 89.3379V238.134C260.527 242.13 272 256.225 272 273C272 292.882 255.882 309 236 309C216.118 309 200 292.882 200 273C200 256.588 210.983 242.742 226 238.408V97.375L143.394 19.5029L159.648 12.373L244.801 89ZM98 251.532C85.0392 251.532 74.5322 262.039 74.5322 275C74.5322 287.961 85.0392 298.468 98 298.468C110.961 298.468 121.468 287.961 121.468 275C121.468 262.039 110.961 251.532 98 251.532ZM236 249.585C223.068 249.585 212.585 260.068 212.585 273C212.585 285.932 223.068 296.415 236 296.415C248.932 296.415 259.415 285.932 259.415 273C259.415 260.068 248.932 249.585 236 249.585ZM371 203.617C358.086 203.617 347.617 214.086 347.617 227C347.617 239.914 358.086 250.383 371 250.383C383.914 250.383 394.383 239.914 394.383 227C394.383 214.086 383.914 203.617 371 203.617ZM177 142.559C164.054 142.559 153.559 153.054 153.559 166C153.559 178.946 164.054 189.441 177 189.441C189.946 189.441 200.441 178.946 200.441 166C200.441 153.054 189.946 142.559 177 142.559ZM293 54.5645C280.057 54.5645 269.564 65.0569 269.564 78C269.564 90.9431 280.057 101.436 293 101.436C305.943 101.436 316.436 90.9431 316.436 78C316.436 65.0569 305.943 54.5645 293 54.5645Z" fill="#D9D9D9"/>
</svg>
